<?xml version="1.0" encoding="utf-8"?>

<!DOCTYPE svg PUBLIC "-//W3C//DTD SVG 1.1//EN" "http://www.w3.org/Graphics/SVG/1.1/DTD/svg11.dtd">
<svg version="1.1" id="Layer_1" xmlns="http://www.w3.org/2000/svg" xmlns:xlink="http://www.w3.org/1999/xlink" x="0px" y="0px"
	 viewBox="0 0 762.473 1641.991" enable-background="new 0 0 762.473 1641.991" xml:space="preserve">
<g>
	<path fill="#F0493A" d="M744.17,1508.289c-4.136,2.986-8.451,5.736-12.913,8.258c-20.152,11.396-43.421,17.9-68.18,17.9H97.864
		c-24.184,0-46.947-6.214-66.787-17.11c-4.496-2.473-8.839-5.189-13.017-8.126c-0.741,1.185-1.185,2.584-1.185,4.094
		c0,2.113,0.859,4.025,2.238,5.41c0.963,0.623,1.947,1.233,2.93,1.836c22.154,13.508,48.118,21.302,75.82,21.302h565.214
		c27.89,0,54.013-7.904,76.257-21.572c1.642-1.004,3.256-2.05,4.849-3.11c0.894-1.261,1.413-2.785,1.413-4.433
		C745.597,1511.081,745.071,1509.543,744.17,1508.289"/>
	<path fill="#31ABD6" d="M737.92,1505.059c-1.067,0-2.078,0.222-3.007,0.61c-0.693,0.457-1.399,0.901-2.106,1.351
		c-20.235,12.684-44.135,20.027-69.731,20.027H97.862c-24.585,0-47.619-6.775-67.334-18.565c-1.441-0.859-2.868-1.746-4.281-2.66
		c-0.54-0.125-1.108-0.194-1.697-0.194c-2.729,0-5.119,1.427-6.484,3.582c4.177,2.937,8.521,5.646,13.017,8.119
		c19.833,10.911,42.597,17.124,66.78,17.124h565.214c24.758,0,48.028-6.512,68.186-17.9c4.461-2.522,8.77-5.279,12.906-8.265
		C742.783,1506.334,740.504,1505.059,737.92,1505.059"/>
	<path fill="#535353" d="M163.486,1569.355c14.755,0,25.216-3.214,31.076-9.553c4.967-5.369,4.69-10.904,4.641-11.52l-7.378,0.575
		l3.692-0.291l-3.699,0.215c0.007,0.131,0.083,3.117-2.854,6.179c-3.083,3.187-9.989,6.996-25.479,6.996V1569.355z"/>
	<rect x="154.297" y="1550.977" fill="#535353" width="12.892" height="18.379"/>
	<rect x="135.157" y="1541.847" fill="#767676" width="64.058" height="10.419"/>
	<path fill="#28ADA1" d="M135.158,1594.561c0,14.603,11.832,26.435,26.435,26.435c14.603,0,26.449-11.832,26.449-26.435
		c0-14.603-11.846-26.435-26.449-26.435C146.99,1568.126,135.158,1579.958,135.158,1594.561"/>
	<path fill="#21877E" d="M161.597,1613.601c10.495,0,19.043-8.541,19.043-19.043c0-10.495-8.548-19.036-19.043-19.036
		c-10.502,0-19.043,8.542-19.043,19.036C142.554,1605.059,151.095,1613.601,161.597,1613.601"/>
	<path fill="#535353" d="M161.597,1601.268c3.699,0,6.713-3.013,6.713-6.713c0-3.692-3.013-6.706-6.713-6.706
		c-3.699,0-6.713,3.013-6.713,6.706C154.884,1598.255,157.898,1601.268,161.597,1601.268"/>
	<path fill="#E9E6EB" d="M169.288,1408.854c-9.955,11.548-27.391,12.844-38.939,2.889c-11.548-9.962-12.837-27.391-2.889-38.946
		l20.055-23.255l41.828,36.043L169.288,1408.854z"/>
	<path fill="#A3AAD6" d="M121.223,1369.528c1.191-0.755,4.69-2.889,7.849-4.738c1.676-0.984,3.838,0.305,3.651,2.238
		c-0.547,5.646,1.039,13.322,7.752,19.106c9.04,7.786,34.097-1.288,45.956,8.929c2.127,1.836,2.716,3.845,2.723,4.129
		c0.035,4.884,0.09,10.107,0.471,15.635c0.894,12.906,3.595,23.131,6.415,30.82l-0.048-0.035
		c-9.56-9.934-22.978-10.668-31.852-5.805l-2.639,4.059l-64.37-55.482l9.851,8.493c11.687-14.277,15.275-23.657,14.236-27.343
		L121.223,1369.528z"/>
	<path fill="#E9E6EB" d="M106.977,1396.877l-9.851-8.493c3.443-3.949,7.96-7.703,12.553-11.077
		c4.011-2.944,8.084-5.598,11.534-7.773C122.265,1373.213,118.663,1382.599,106.977,1396.877"/>
	<path fill="#E9E6EB" d="M164.142,1439.807c8.874-4.87,22.278-4.129,31.845,5.805l0.055,0.028v0.007
		c2.293,6.255,4.648,10.876,6.193,13.626c3.166,5.687,11.25,14.52,4.939,23.976l-45.686-39.382L164.142,1439.807z"/>
	<path fill="#E9E6EB" d="M170.282,1432.684c0.914,0.79,2.217,1.067,3.429,0.63c7.447-2.695,17.526,2.833,20.616,7.364
		c1.794-1.663,1.981-5.861-2.494-9.719c-7.793-6.72-14.277-6.373-20.477-4.129c-1.787,0.637-2.716,2.625-2.071,4.42
		C169.499,1431.818,169.846,1432.31,170.282,1432.684"/>
	<path fill="#E9E6EB" d="M167.032,1419.44c0.921,0.783,2.224,1.053,3.429,0.61c7.433-2.743,17.547,2.723,20.664,7.239
		c1.787-1.677,1.947-5.881-2.549-9.705c-7.842-6.671-14.312-6.29-20.505-4.004c-1.787,0.658-2.695,2.646-2.044,4.433
		C166.242,1418.581,166.595,1419.066,167.032,1419.44"/>
	<path fill="#E9E6EB" d="M165.598,1407.158c0.914,0.79,2.217,1.067,3.429,0.637c7.447-2.702,17.526,2.826,20.616,7.357
		c1.794-1.663,1.981-5.861-2.494-9.719c-7.793-6.72-14.277-6.373-20.477-4.129c-1.787,0.637-2.709,2.625-2.071,4.42
		C164.816,1406.292,165.162,1406.784,165.598,1407.158"/>
	<path fill="#E2DFE5" d="M100.436,1384.955l108.76,93.756c-0.499,1.746-1.351,3.561-2.577,5.431l0.007,0.007
		c-0.028,0.035-0.062,0.076-0.083,0.111c-0.575,0.866-1.205,1.732-1.974,2.625c-10.89,12.629-17.845,8.375-17.845,8.375
		s-75.439-65.034-93.714-80.787c-6.879-5.923-5.244-13.474,0.159-21.115l-0.028-0.035c0.104-0.152,0.249-0.312,0.367-0.464
		c0.894-1.226,1.863-2.466,2.937-3.686C97.679,1387.761,99.029,1386.348,100.436,1384.955"/>
	<path fill="#E9E6EB" d="M160.052,1444.552c1.15,0.998,1.282,2.744,0.291,3.893c-0.998,1.157-2.736,1.282-3.893,0.284
		l-63.621-54.838c0.125-0.18,0.215-0.353,0.346-0.526l-0.042-0.035c0.111-0.159,0.263-0.312,0.374-0.471
		c0.817-1.122,1.718-2.245,2.681-3.367L160.052,1444.552z"/>
	<path fill="#D53F56" d="M338.101,779.398c-7.98,0.596-15.254,4.233-20.477,10.294c-5.23,6.061-7.752,13.785-7.163,21.773
		l19.154,258.482c2.854,38.489-9.456,75.807-34.658,105.047l-120.114,139.345l45.305,39.057l120.114-139.345
		c35.662-41.371,53.057-94.109,49.018-148.565l-19.147-258.475c-0.623-7.946-4.26-15.22-10.322-20.443
		C353.77,781.366,346.053,778.837,338.101,779.398"/>
	<path fill="#AD2A44" d="M151.794,1341.069l-4.51,5.223c-0.824,0.97-0.714,2.418,0.242,3.249l41.828,36.057
		c0.956,0.824,2.411,0.714,3.242-0.243l4.503-5.23L151.794,1341.069z"/>
	
		<rect x="169.92" y="1320.807" transform="matrix(0.653 -0.7574 0.7574 0.653 -959.4899 607.2728)" fill="#D53F56" width="26.089" height="59.819"/>
	
		<rect x="189.886" y="1307.444" transform="matrix(0.6525 -0.7578 0.7578 0.6525 -945.8857 612.1729)" fill="#AD2A44" width="9.203" height="59.814"/>
	<path fill="#E9E6EB" d="M599.191,1496.241c3.54-9.477,14.18-17.672,27.917-16.397l0.055-0.007v0.007
		c5.826,3.235,10.62,5.189,13.585,6.276c6.117,2.231,18.004,3.644,19.404,14.929h-60.31L599.191,1496.241z"/>
	<path fill="#E2DFE5" d="M515.123,1496.29h143.591c0.762,1.649,1.302,3.575,1.593,5.798h0.014c0.007,0.049,0,0.097,0.007,0.145
		c0.132,1.025,0.215,2.099,0.215,3.27c0,16.674-8.036,17.997-8.036,17.997H528.763c-9.068,0-12.76-6.789-13.654-16.099h-0.048
		c-0.021-0.194-0.007-0.409-0.028-0.602c-0.125-1.51-0.187-3.083-0.18-4.711C514.867,1500.211,514.964,1498.264,515.123,1496.29"/>
	<path fill="#EE9B58" d="M681.504,453.926c7.842-8.32,20.948-8.715,29.268-0.866c8.327,7.849,8.715,20.949,0.866,29.269
		l-15.656,16.612l-30.134-28.403L681.504,453.926z"/>
	<path fill="#E2DFE5" d="M548.252,623.19c-6.055-2.133-11.472-5.424-16.092-9.774c-8.77-8.264-13.792-19.487-14.139-31.589
		l-0.533-17.873l50.591-1.517l0.145,4.96l84.805-89.966l36.833,34.72l-92.619,98.252
		C584.711,623.703,565.488,629.259,548.252,623.19"/>
	<path fill="#D6D2DB" d="M660.918,469.058c0.658-0.693,1.635-0.893,2.48-0.582c0.277,0.104,0.547,0.263,0.769,0.485l33.487,31.561
		c0.229,0.222,0.409,0.478,0.527,0.748c0.367,0.817,0.222,1.815-0.43,2.501l-7.89,8.375l-36.833-34.72L660.918,469.058z"/>
	<path fill="#DD4C63" d="M255.905,620.714c-5.494-0.318-15.414-2.064-15.178-5.354c0.229-3.298,4.156-5.175,14.534-11.458
		c1.6-0.956,3.651,0.256,3.526,2.113l-1.039,14.755C257.132,620.749,256.515,620.749,255.905,620.714"/>
	<path fill="#8A6978" d="M278.846,754.673l12.067,0.845c4.406,0.305,7.953-3.505,7.336-7.883
		c-1.531-10.682-3.478-30.813-1.669-56.583l5.632-80.545c0.139-1.974-2.12-3.207-3.672-1.974
		c-9.484,7.537-26.019,12.642-40.795,12.254v-0.021l1.039-14.749c0.132-1.87-1.919-3.076-3.519-2.113
		c-2.3,1.392-4.281,2.563-5.971,3.588l9.913-101.549c4.191-31.132,16.75-57.83,47.598-86.232c3.879-3.568,9.304-6.089,15.476-7.849
		c-0.381,1.566,0.797,3.117,2.431,3.235l17.596,1.233c1.773,0.124,3.346-1.171,3.519-2.937c0.132-1.358,0.353-3.097,0.714-5.085
		c10.156-0.506,19.799-0.083,26.303,0.319c-16.03,1.628-27.259,5.029-33.369,14.132c-8.687,12.94-18.531,36.466-21.932,66.219
		c-3.394,29.746-1.559,96.464-3.796,120.239c-2.238,23.775-6.574,56.908-7.842,74.982c-1.115,15.912-8.846,69.8,23.512,90.16
		l-43.082-3.021c-13.543-0.949-23.976-16.639-31.257-35.246C260.73,746.797,268.413,753.939,278.846,754.673"/>
	<path fill="#D4425A" d="M255.905,620.714c15.226,0.887,32.767-4.336,42.638-12.185c1.552-1.233,3.81,0.014,3.672,1.988
		l-0.935,13.37c-8.334,9.962-28.825,13.37-46.455,12.345c-5.064-0.291-12.746-2.023-14.728-4.669
		c0.201-9.899,0.63-16.203,0.63-16.203C240.492,618.65,250.412,620.396,255.905,620.714"/>
	<path fill="#68455A" d="M240.094,631.563c1.981,2.646,9.664,4.378,14.728,4.669c17.63,1.025,38.128-2.383,46.462-12.345
		c-1.642,23.339-4.226,60.379-4.704,67.155c-1.801,25.784,0.145,45.908,1.669,56.597c0.623,4.371-2.93,8.188-7.329,7.876
		l-12.074-0.838C241.618,752.072,239.345,667.731,240.094,631.563"/>
	<path fill="#F8A799" d="M241.617,808.056c0.921,11.403-7.572,21.385-18.974,22.3c-11.396,0.928-21.385-7.572-22.306-18.974
		l-1.836-22.757l41.28-3.325L241.617,808.056z"/>
	<path fill="#EE9B58" d="M196.019,867.574c1.642-0.083,3.11-0.686,4.267-1.635c0.326-0.263,0.762-0.353,1.164-0.242
		c0.402,0.118,0.727,0.423,0.866,0.825c1.226,3.533,4.662,5.999,8.597,5.819c2.321-0.125,4.364-1.143,5.84-2.688
		c0.312-0.326,0.769-0.471,1.205-0.374c0.436,0.097,0.797,0.423,0.942,0.845c1.42,4.156,5.424,6.879,9.83,6.685
		c4.08-0.201,7.98-2.93,9.116-7.468c0.118-0.45,0.464-0.797,0.907-0.921c0.45-0.125,0.928,0,1.254,0.326
		c1.663,1.683,3.99,2.674,6.533,2.556c4.828-0.249,8.493-4.281,8.271-9.068c0,0-0.27-8.638-0.333-12.095
		c-0.014-0.727,0.561-1.344,1.289-1.385c9.74-0.533,11.797-13.231,7.745-27.737c-4.752-17.034-22.632-46.081-44.419-43.927
		c-18.157,1.794-33.743,20.034-33.044,44.744c0.125,4.406-0.291-3.588,2.12,38.731C188.405,864.664,191.918,867.809,196.019,867.574
		"/>
	<path fill="#E2DFE5" d="M207.268,521.417l1.365-2.881l45.728,21.703l-1.365,2.882c-15.732,33.147-22.486,70.001-19.542,106.571
		l9.809,121.479l-50.452,4.073l-9.802-121.479C179.337,608.342,187.726,562.573,207.268,521.417"/>
	<path fill="#D6D2DB" d="M244.184,782.635c0.104,1.261-0.845,2.376-2.106,2.48l-45.866,3.699c-0.319,0.028-0.63-0.014-0.908-0.111
		c-0.852-0.284-1.496-1.046-1.572-1.995l-0.921-11.465l50.445-4.073L244.184,782.635z"/>
	<path fill="#B3BCE0" d="M210.318,504.059l-4.932,10.391c-0.139,0.291-0.208,0.589-0.222,0.894c0.014-0.305,0.083-0.602,0.222-0.894
		l65.589-138.229c7.004-14.797,24.807-21.35,39.839-14.215c14.887,7.073,21.26,24.946,14.201,39.847l-60.656,127.852
		L210.318,504.059z"/>
	<path fill="#989FD0" d="M256.37,541.186l-49.891-23.671c-0.866-0.402-1.351-1.282-1.309-2.182c0.014-0.291,0.083-0.596,0.222-0.879
		l4.925-10.391l54.041,25.638l-4.925,10.398c-0.138,0.277-0.326,0.526-0.547,0.721C258.213,541.422,257.236,541.595,256.37,541.186"
		/>
	<path fill="#EE9B58" d="M644.377,399.985l0.353,0.042c1.42,0.187,2.847-0.27,3.907-1.233c1.053-0.977,1.628-2.355,1.573-3.789
		c-0.021-0.416,0-0.852,0.055-1.288c0.54-4.17,4.344-7.101,8.5-6.56l21.794,2.813c6.262,0.804,12.268,2.695,17.859,5.57
		c38.974,20.124,42.915,17.339,27.232,62.693c-8.174,23.616-25.264,38.142-38.267,32.608l-8.327-7.842
		c-2.591-4.448-4.212-10.211-4.683-16.806l3.374-1.081c2.84-0.914,4.406-3.948,3.492-6.789l-2.639-8.236
		c-0.921-2.889-3.457-4.953-6.463-5.272l-18.863-1.988c-3.429-0.381-5.888-3.415-5.535-6.83c0.132-1.226,0.61-2.314,1.323-3.201
		c0.374-0.478,0.464-1.115,0.242-1.676c-0.222-0.568-0.734-0.956-1.344-1.032c-4.143-0.568-7.094-4.344-6.553-8.507
		c0.201-1.579,0.88-2.965,1.87-4.052c0.36-0.416,0.478-1.005,0.284-1.531c-0.194-0.52-0.658-0.894-1.219-0.963
		c-0.464-0.056-0.914-0.159-1.337-0.291c-4.143-1.316-6.588-6.027-4.558-10.523C637.796,401.218,641.114,399.59,644.377,399.985"/>
	<path fill="#535353" d="M598.989,1569.355c-14.755,0-25.216-3.214-31.076-9.553c-4.967-5.369-4.69-10.904-4.641-11.52l7.378,0.575
		l-3.692-0.291l3.699,0.215c-0.007,0.131-0.083,3.117,2.854,6.179c3.083,3.187,9.989,6.996,25.479,6.996V1569.355z"/>
	<rect x="595.289" y="1550.977" fill="#535353" width="12.892" height="18.379"/>
	<rect x="563.263" y="1541.847" fill="#767676" width="64.058" height="10.419"/>
	<path fill="#28ADA1" d="M627.317,1594.561c0,14.603-11.832,26.435-26.435,26.435c-14.603,0-26.449-11.832-26.449-26.435
		c0-14.603,11.846-26.435,26.449-26.435C615.485,1568.126,627.317,1579.958,627.317,1594.561"/>
	<path fill="#21877E" d="M600.878,1613.601c-10.495,0-19.044-8.541-19.044-19.043c0-10.495,8.548-19.036,19.044-19.036
		c10.502,0,19.043,8.542,19.043,19.036C619.921,1605.059,611.38,1613.601,600.878,1613.601"/>
	<path fill="#535353" d="M600.878,1601.268c-3.699,0-6.713-3.013-6.713-6.713c0-3.692,3.013-6.706,6.713-6.706
		c3.699,0,6.713,3.013,6.713,6.706C607.59,1598.255,604.577,1601.268,600.878,1601.268"/>
	<path fill="#E9E6EB" d="M583.399,1469.936c0,15.247-12.359,27.613-27.613,27.613c-15.24,0-27.599-12.365-27.599-27.613v-30.716
		h55.211V1469.936z"/>
	<path fill="#A3AAD6" d="M520.796,1471.032c0.416-1.344,1.669-5.244,2.854-8.715c0.624-1.843,3.103-2.279,4.233-0.686
		c3.263,4.635,9.477,9.407,18.337,9.407c11.936,0,24.987-23.241,40.629-23.241c2.813,0,4.579,1.143,4.766,1.351
		c3.214,3.678,6.671,7.593,10.571,11.534c9.096,9.193,17.817,15.171,24.98,19.161v-0.007l-0.062,0.014
		c-13.737-1.288-24.371,6.907-27.917,16.39l0.651,4.808h-84.985h13.01c-0.471-18.448-3.872-27.896-7.066-30.003V1471.032z"/>
	<path fill="#E9E6EB" d="M527.862,1501.049h-13.01c0.035-5.237,1.005-11.035,2.279-16.577c1.122-4.856,2.466-9.518,3.665-13.432
		C523.99,1473.145,527.391,1482.601,527.862,1501.049"/>
	<path fill="#E9E6EB" d="M599.19,1486.837c1.205,0,2.376-0.637,3.013-1.76c3.879-6.906,15.123-9.296,20.429-7.883
		c0.27-2.431-2.334-5.743-8.244-5.743c-10.287,0-14.977,4.496-18.205,10.246c-0.935,1.662-0.339,3.768,1.316,4.697
		C598.04,1486.692,598.615,1486.837,599.19,1486.837"/>
	<path fill="#E9E6EB" d="M588.081,1478.927c1.205-0.007,2.376-0.651,3-1.78c3.838-6.927,15.067-9.394,20.38-8.008
		c0.256-2.431-2.369-5.722-8.278-5.687c-10.287,0.062-14.949,4.586-18.143,10.349c-0.921,1.669-0.319,3.776,1.351,4.697
		C586.931,1478.789,587.506,1478.927,588.081,1478.927"/>
	<path fill="#E9E6EB" d="M578.977,1470.561c1.205,0,2.376-0.637,3.013-1.76c3.879-6.906,15.122-9.297,20.422-7.883
		c0.27-2.431-2.328-5.736-8.237-5.736c-10.287,0-14.977,4.489-18.205,10.232c-0.935,1.67-0.339,3.775,1.316,4.704
		C577.827,1470.415,578.402,1470.561,578.977,1470.561"/>
	<path fill="#E9E6EB" d="M599.19,1502.506c1.524,0,2.764,1.233,2.764,2.764c0,1.517-1.24,2.75-2.764,2.75h-83.995
		c-0.021-0.215-0.069-0.402-0.09-0.624h-0.048c-0.021-0.187-0.007-0.402-0.021-0.596c-0.111-1.379-0.159-2.827-0.166-4.295H599.19z"
		/>
	<path fill="#D53F56" d="M462.25,789.444c-15.919,4.281-25.403,20.706-21.122,36.625l49.787,185.807
		c23.193,86.599,34.97,176.005,34.97,265.694v117.156h59.825V1277.57c0-94.926-12.469-189.492-37.048-281.156l-49.787-185.849
		c-3.498-13.024-15.365-22.175-28.853-22.175C467.446,788.391,464.827,788.752,462.25,789.444"/>
	<path fill="#AD2A44" d="M525.888,1430.015v6.907c0,1.268,1.025,2.3,2.3,2.3h55.218c1.275,0,2.3-1.032,2.3-2.3v-6.907H525.888z"/>
	<rect x="525.883" y="1403.922" fill="#D53F56" width="59.818" height="26.089"/>
	<rect x="525.883" y="1394.723" fill="#AD2A44" width="59.818" height="9.207"/>
	<path fill="#A3AAD6" d="M512.432,550.292l-4.233-141.437c-0.499-16.363,12.365-30.3,28.998-30.792
		c16.48-0.492,30.294,12.518,30.792,29.005l4.233,141.437L512.432,550.292z"/>
	<path fill="#858AC4" d="M570.34,562.369l-55.191,1.649c-0.956,0.027-1.794-0.526-2.161-1.337c-0.125-0.27-0.201-0.575-0.208-0.894
		l-0.346-11.493l59.79-1.787L572.571,560c0.007,0.319-0.049,0.624-0.159,0.901C572.086,561.732,571.289,562.342,570.34,562.369"/>
	<path fill="#68455A" d="M305.907,684.201c1.261-18.073,5.597-51.207,7.835-74.982c2.244-23.768,0.409-90.5,3.803-120.246
		c3.401-29.746,13.238-53.272,21.932-66.212c6.11-9.102,17.332-12.504,33.369-14.132c1.753,0.104,3.277,0.215,4.53,0.298
		c56.133,3.928,71.255,6.027,82.422,28.022c11.978,23.608,14.949,53.992,13.737,71.207c-1.198,17.214-9.22,59.174-11.486,91.545
		c-2.265,32.365-2.625,110.201-2.625,110.201c-1.954,27.938-19.085,52.551-44.606,64.086c-7.98,3.602-16.716,5.168-25.451,4.565
		l-59.95-4.198C297.06,754.001,304.798,700.113,305.907,684.201"/>
	<path fill="#D4425A" d="M392.706,362.772c42.015,2.944,57.352,39.417,56.334,60.22c-5.057-4.004-11.499-6.637-20.443-8.562
		c2.57-14.915-0.284-39.943-36.376-42.465c-38.974-2.729-45.354,30.813-46.393,41.433c-0.173,1.767-1.753,3.055-3.519,2.93
		l-17.596-1.226c-1.697-0.118-2.896-1.78-2.383-3.415C329.196,389.907,350.075,359.787,392.706,362.772"/>
	<path fill="#F8A799" d="M399.495,354.963c0.52,15.24,13.301,27.17,28.534,26.65c15.24-0.52,27.169-13.294,26.65-28.534
		c-0.513-15.24-13.294-27.169-28.534-26.65C410.912,326.955,398.976,339.723,399.495,354.963"/>
	<path fill="#EE9B58" d="M432.714,414.769c15.31-3.242,27.301-16.251,28.548-32.649l10.156-132.868
		c1.538-19.937-13.391-37.318-33.321-38.849c-19.958-1.545-37.311,13.398-38.835,33.328l-10.156,132.868
		c-1.531,19.937,13.398,37.325,33.314,38.849C425.96,415.718,429.424,415.468,432.714,414.769"/>
	<path fill="#CC7C45" d="M394.134,310.854l5.133-67.119c1.524-19.93,18.863-34.873,38.835-33.328
		c19.916,1.524,34.852,18.912,33.314,38.842l-6.567,85.907c-13.924-1.642-28.728-5.445-44.28-11.493
		C411.543,320.158,402.689,315.787,394.134,310.854"/>
	<path fill="#F8A799" d="M442.471,816.371c-1.06,15.213,10.405,28.402,25.618,29.469c15.206,1.06,28.402-10.405,29.462-25.618
		c1.067-15.212-10.405-28.402-25.611-29.469C456.728,789.694,443.531,801.158,442.471,816.371"/>
	<path fill="#F8A799" d="M312.736,807.296c-1.067,15.213,10.405,28.403,25.618,29.469c15.206,1.06,28.402-10.405,29.462-25.618
		c1.067-15.212-10.405-28.402-25.611-29.469C326.993,780.618,313.796,792.083,312.736,807.296"/>
	<path fill="#F8A799" d="M515.624,404.252c-0.804,11.403,7.8,21.302,19.21,22.098c11.409,0.804,21.302-7.8,22.105-19.203
		c0.797-11.416-7.807-21.309-19.217-22.105C526.319,384.246,516.427,392.849,515.624,404.252"/>
	<path fill="#F8A799" d="M277.326,387.582c-0.804,11.403,7.8,21.302,19.21,22.098c11.409,0.804,21.302-7.8,22.105-19.203
		c0.797-11.416-7.807-21.309-19.217-22.105C288.022,367.577,278.129,376.18,277.326,387.582"/>
	<path fill="#D53F56" d="M310.812,752.316l0.132,0.007c1.572-8.237,3.831-16.092,6.498-23.124c1.406-3.727,3.041-7.405,4.787-11.049
		c0.402-0.845,1.302-1.365,2.244-1.303l178.838,12.511c1.129,0.076,2.03,0.956,2.134,2.071c0.18,1.857,0.333,3.72,0.589,5.563
		c0.887,6.581,1.358,13.218,0.894,19.84l-0.326,4.725c-0.409,5.812-0.818,11.541-1.33,17.152v0.007l-0.506,7.35
		c-1.891,27.758-3.263,47.82-17.221,59.964c-14.132,12.31-40.318,15.898-90.444,12.4h-0.035
		c-80.988-5.667-92.135-24.675-88.428-87.057C308.845,766.773,309.773,757.885,310.812,752.316"/>
	<path fill="#E98240" d="M448.467,734.748c4.759,0.333,8.341,4.454,8.001,9.214c-0.333,4.745-4.454,8.334-9.2,8.001
		c-4.759-0.333-8.341-4.454-8.015-9.214C439.586,737.997,443.715,734.416,448.467,734.748"/>
	<path fill="#AD2A44" d="M330.622,753.702c-2.203,11.444-2.002,33.591,4.78,34.062c17.866,1.247,50.965-3.145,57.636-29.698
		c15.032,1.053,25.382,1.773,39.271,2.75l0.173,0.014c-0.907,8.154-3.027,22.493-7.696,37.034
		c-3.512,10.938,0.845,21.78,12.116,22.563l11.001,0.769c1.517,0.111,3.048-0.506,3.942-1.745
		c9.484-13.308,13.28-42.832,14.554-56.251l20.131,1.406c0.582,16.016,7.586,25.347,16.757,30.571
		c0.395-2.473,0.748-4.981,1.06-7.53c-6.699-4.863-10.384-12.358-10.918-22.556l12.857,0.894c0.61-8.68,0.374-5.41,0.457-6.879
		l-39.791-2.785c0.083-1.081,1.441-20.658,1.441-20.658c0.042-0.623,0.014-1.24-0.069-1.829l37.644,2.632
		c-0.125-0.991-0.208-1.981-0.305-2.972c-0.062-0.693-0.152-1.372-0.215-2.065c-0.104-1.115-1.011-1.995-2.134-2.071l-43.019-3.013
		l-135.826-9.498c-0.928-0.062-1.808,0.45-2.21,1.289c-0.838,1.759-1.669,3.526-2.452,5.306l140.01,9.788
		c1.005,0.077,1.76,0.949,1.683,1.947l-1.441,20.657c-30.19-2.113-117.551-8.223-147.658-10.329
		c-0.54,2.238-1.018,4.517-1.462,6.817L330.622,753.702z M431.36,799.971c4.905-15.296,7.094-30.231,8.015-38.662l20.152,1.413
		c-1.372,14.596-5.036,39.271-12.178,51.02c-0.18,0.305-0.513,0.457-0.859,0.436l-9.103-0.637c-2.487-0.173-4.253-1.087-5.403-2.792
		C430.265,808.221,430.03,804.092,431.36,799.971 M337.473,754.18l48.589,3.395c-7.024,23.172-40.068,23.643-48.353,23.387
		C335.755,776.043,335.942,761.094,337.473,754.18"/>
	<path fill="#E2DFE5" d="M306.744,767.31c0.374-5.133,0.949-10.218,1.877-15.15l199.953,13.993
		c-0.367,5.14-0.783,10.204-1.275,15.185L306.744,767.31z"/>
	<path fill="#D6D2DB" d="M507.315,781.34c-0.388,3.935-0.818,7.821-1.358,11.611c-0.173,1.199-1.261,2.043-2.459,1.961
		l-195.006-13.64c-1.191-0.083-2.141-1.06-2.168-2.251c-0.055-1.995-0.035-3.983,0.028-5.965c0.062-1.926,0.166-3.838,0.305-5.749
		L507.315,781.34z"/>
	<path fill="#A3AAD6" d="M280.794,364.328c21.8-16.349,64.134-20.54,96.644-21.121c-0.083,4.08,0.97,7.89,2.903,11.409
		c1.282,2.348,2.965,4.551,4.946,6.63c1.981,2.071,4.274,4.004,6.782,5.777c11.313,7.994,27.169,12.92,40.117,13.82
		c5.646,0.395,10.786,0.222,15.448-0.45c2.397-0.346,4.641-0.831,6.768-1.455c4.059-1.184,7.676-2.847,10.744-5.043
		c1.129-0.79,2.175-1.663,3.173-2.584c4.247-4.004,7.066-9.041,8.389-14.811c0.436-1.926,0.707-3.935,0.811-6.006
		c39.528,6.637,95.217,23.061,87.659,62.374c-3.713,15.538-19.459,19.203-19.854,46.206c-0.429,29.054-4.42,71.027-13.979,110.167
		l0.021,0.007c-10.162,45.242-11.368,145.385-12.989,183.749l-218.179-15.268c2.847-39.085,6.754-79.021,7.689-99.699
		c0.804-17.935-2.404-106.474-10.495-156.227c-3.803-16.182-5.327-31.755-5.611-37.567c-1.268-25.507-16.64-31.658-21.676-43.317
		C264.3,387.521,269.378,372.045,280.794,364.328"/>
	<path fill="#858AC4" d="M388.087,343.142c1.579,0.007,2.958,1.06,3.387,2.577c1.088,3.845,5.043,7.814,10.557,11.285
		c2.903,1.822,6.228,3.505,9.816,4.96c6.65,2.702,14.146,4.607,21.302,5.105c21.073,1.476,29.005-5.764,30.411-15.136
		c0.291-1.919,2.071-3.256,3.997-2.979c3.401,0.485,6.726,0.997,9.962,1.531c-0.104,2.078-0.374,4.087-0.817,6.013
		c-1.316,5.771-4.143,10.807-8.389,14.804c-0.984,0.935-2.044,1.801-3.166,2.598c-3.076,2.196-6.685,3.845-10.744,5.037
		c-2.127,0.63-4.378,1.115-6.768,1.462c-4.662,0.672-9.802,0.845-15.448,0.443c-12.947-0.907-28.804-5.819-40.117-13.813
		c-2.515-1.788-4.808-3.713-6.789-5.785c-1.981-2.071-3.658-4.288-4.939-6.63c-1.933-3.519-2.993-7.329-2.902-11.402
		C381.131,343.149,384.699,343.129,388.087,343.142"/>
	<path fill="#858AC4" d="M518.371,752.996l0.069,0.007c-0.097,1.815-0.215,3.581-0.326,5.369c-0.076,1.282-0.139,2.598-0.229,3.852
		c-0.18,2.528-2.376,4.413-4.905,4.24l-4.6-0.326l-199.953-13.993l-4.621-0.312v-0.007c-2.535-0.173-4.447-2.356-4.267-4.891
		c0.208-3.041,0.423-6.096,0.651-9.158v-0.041L518.371,752.996z"/>
	<path fill="#EE9B58" d="M327.189,171.703c-0.049-0.935-0.09-1.863-0.118-2.805c-1.933-56.486,48.215-104.057,111.988-106.232
		c9.497-0.318,19.009,0.423,28.278,2.21c28.201,5.452,53.618,20.526,70.237,41.523c8.5,10.73,13.945,22.514,17.686,35.184
		c4.704,15.954,4.226,32.129,4.794,48.748c0.52,15.247,2.508,31.09,1.323,46.33c-2.071,26.608-16.362,53.085-40.103,69.572
		c-26.823,18.621-62.769,11.77-91.234,0.707c-27.883-10.841-53.958-30.037-71.345-51.865
		C339.354,230.815,328.748,201.401,327.189,171.703"/>
	<path fill="#CC7C45" d="M358.963,182.852c8.195-2.32,16.051,2.148,17.769,11.77c2.127,11.936-5.369,13.044-3.526,23.747
		c1.143,6.623,3.921,8.929,5.092,15.455c1.046,5.895-0.166,12.94-5.611,14.478c-8.936,2.528-21.066-12.462-25.001-27.363
		C343.66,205.678,344.99,186.801,358.963,182.852"/>
	<path fill="#603913" d="M555.259,141.585c-3.526-11.943-8.569-23.089-16.245-33.314c8.791-4.087,15.268-10.772,19.41-18.635
		c15.947,27.661,6.366,73.029,0.984,79.499C558.937,159.846,557.947,150.681,555.259,141.585"/>
	<path fill="#603913" d="M474.137,66.398c59.195-2.016,55.329-28.991,55.329-28.991c12.137,12.629,12.019,30.086,12.019,30.086
		c7.828-15.199,3.159-35.067,1.33-38.232c34.582,18.593,26.373,81.612-22.452,83.274c-44.266,1.51-67.147,2.293-78.709,2.688
		c-11.576,0.388-42.513,12.954-41.336,47.453c1.164,34.014,1.191,43.158-17.388,49.282c0.125-0.298,0.27-0.623,0.429-0.983
		c1.607-3.602,4.025-9.041,2.432-17.963c-2.196-12.338-11.61-20.353-23.401-19.951c-1.981,0.069-3.969,0.388-5.93,0.935
		c-3.741,1.06-6.886,2.75-9.497,4.932C356.933,134.447,390.669,82.339,474.137,66.398"/>
	<path fill="#72556C" d="M417.277,27.132c68.595-22.05,108.067,22.417,108.067,22.417l-0.007,0.007
		c-5.764,7.454-19.362,15.76-51.201,16.84C331.488,93.642,334.107,226.509,352.312,246.433c0,0-4.385,1.358-7.405-1.413
		c-8.216-7.516-18.711-23.844-22.32-40.13C300.419,105.1,376.191,40.342,417.277,27.132"/>
	<path fill="#5D4057" d="M349.695,242.555c0,0.007-0.007,0.014-0.007,0.014c-0.007-0.014-0.021-0.035-0.028-0.055
		C349.667,242.528,349.681,242.542,349.695,242.555"/>
	<path fill="#5D4057" d="M288.356,92.802c21.309-29.358,65.97-71.816,133.727-67.119c-1.593,0.45-3.194,0.935-4.808,1.455
		c-41.08,13.203-116.838,77.94-94.698,177.708c-11.264-26.338-17.589-58.044-17.422-87.541c0.035-5.653-5.971-7.946-12.656-10.537
		C286.874,104.585,284.816,97.685,288.356,92.802"/>
	<path fill="#6C4E66" d="M485.428,351.997c-5.154-1.032-10.329-1.96-15.448-2.75c3.734-2.092,7.807-3.457,11.673-2.702
		c11.125,2.051,21.904,4.607,31.769,7.801c2.148,0.686,4.156,1.732,5.923,3.138c17.713,14.042,18.247,42.188,20.671,62.478
		c3.623,30.328,2.307,62.16,0.568,92.599c-2.535,45.097-9.484,88.851-18.33,133.082c-0.166-14.278-1.323-28.229-1.095-42.438
		c0.256-15.76,0.298-31.533,0.132-47.3c-0.332-31.541-1.503-63.074-3.512-94.545c-0.707-11.181-0.707-22.819-2.847-33.778
		c-4.108-21.052-6.054-46.178-17.339-64.91C494.753,357.962,490.894,353.549,485.428,351.997"/>
	<path fill="#6C4E66" d="M304.517,639.711c0.346-11.693,0.229-23.428-0.249-33.466c-0.062-1.309,0.63-2.556,1.78-3.18
		c3.651-2.002,7.572-3.693,10.994-5.909c16.252-10.53,22.639-26.989,28.028-44.634c5.653-18.475,8.985-37.636,11.209-56.804
		c9.352-80.414-12.033-150.948-29.407-148.233c-1.891,0.34-3.782,0.679-5.618,1.067c1.573-2.729,4.073-6.117,9.421-6.366
		c8.091-1.268,16.383-2.127,24.523-2.702c2.743-0.201,5.41,0.741,7.509,2.528c14.832,12.677,34.776,51.021,27.107,160.668
		c-2.591,36.957-12.455,73.451-30.612,105.844c-12.248,21.856-29.601,48.485-54.422,57.276c-0.436,0.145-0.914,0.069-1.282-0.201
		c-0.353-0.284-0.554-0.728-0.513-1.185C303.575,657.168,304.289,647.442,304.517,639.711"/>
</g>
</svg>
